<mxfile host="app.diagrams.net" modified="2023-06-14T05:16:33.079Z" agent="Mozilla/5.0 (Macintosh; Intel Mac OS X 10_15_7) AppleWebKit/537.36 (KHTML, like Gecko) Chrome/112.0.0.0 Safari/537.36" etag="yB5OTHza8nv0mLeuWLmY" version="21.3.4" type="device">
  <diagram name="Page-1" id="9Tq_Rg6amuM9MWHMLjdR">
    <mxGraphModel dx="1022" dy="658" grid="0" gridSize="10" guides="1" tooltips="1" connect="1" arrows="1" fold="1" page="1" pageScale="1" pageWidth="850" pageHeight="1100" math="0" shadow="0">
      <root>
        <mxCell id="0" />
        <mxCell id="1" parent="0" />
        <mxCell id="HftDXYYa0DBVADGEEzue-1" value="&lt;font style=&quot;font-size: 19px;&quot;&gt;0&lt;/font&gt;" style="rounded=0;whiteSpace=wrap;html=1;strokeWidth=2;" vertex="1" parent="1">
          <mxGeometry x="120" y="160" width="40" height="40" as="geometry" />
        </mxCell>
        <mxCell id="HftDXYYa0DBVADGEEzue-3" value="&lt;span style=&quot;font-size: 19px;&quot;&gt;8&lt;/span&gt;" style="rounded=0;whiteSpace=wrap;html=1;strokeWidth=2;" vertex="1" parent="1">
          <mxGeometry x="120" y="200" width="40" height="40" as="geometry" />
        </mxCell>
        <mxCell id="HftDXYYa0DBVADGEEzue-4" value="&lt;font style=&quot;font-size: 19px;&quot;&gt;16&lt;br&gt;&lt;/font&gt;" style="rounded=0;whiteSpace=wrap;html=1;strokeWidth=2;" vertex="1" parent="1">
          <mxGeometry x="120" y="240" width="40" height="40" as="geometry" />
        </mxCell>
        <mxCell id="HftDXYYa0DBVADGEEzue-5" value="&lt;font style=&quot;font-size: 14px;&quot;&gt;Payload ID&lt;/font&gt;" style="rounded=0;whiteSpace=wrap;html=1;fillColor=#dae8fc;strokeColor=#6c8ebf;" vertex="1" parent="1">
          <mxGeometry x="160" y="160" width="80" height="40" as="geometry" />
        </mxCell>
        <mxCell id="HftDXYYa0DBVADGEEzue-7" value="&lt;font style=&quot;font-size: 14px;&quot;&gt;Frame No.&lt;/font&gt;" style="rounded=0;whiteSpace=wrap;html=1;fillColor=#d5e8d4;strokeColor=#82b366;" vertex="1" parent="1">
          <mxGeometry x="240" y="160" width="80" height="40" as="geometry" />
        </mxCell>
        <mxCell id="HftDXYYa0DBVADGEEzue-8" value="&lt;font style=&quot;font-size: 14px;&quot;&gt;HH&lt;/font&gt;" style="rounded=0;whiteSpace=wrap;html=1;fillColor=#ffe6cc;strokeColor=#d79b00;" vertex="1" parent="1">
          <mxGeometry x="320" y="160" width="40" height="40" as="geometry" />
        </mxCell>
        <mxCell id="HftDXYYa0DBVADGEEzue-9" value="&lt;font style=&quot;font-size: 14px;&quot;&gt;MM&lt;/font&gt;" style="rounded=0;whiteSpace=wrap;html=1;fillColor=#ffe6cc;strokeColor=#d79b00;" vertex="1" parent="1">
          <mxGeometry x="360" y="160" width="40" height="40" as="geometry" />
        </mxCell>
        <mxCell id="HftDXYYa0DBVADGEEzue-10" value="&lt;font style=&quot;font-size: 14px;&quot;&gt;SS&lt;/font&gt;" style="rounded=0;whiteSpace=wrap;html=1;fillColor=#ffe6cc;strokeColor=#d79b00;" vertex="1" parent="1">
          <mxGeometry x="400" y="160" width="40" height="40" as="geometry" />
        </mxCell>
        <mxCell id="HftDXYYa0DBVADGEEzue-11" value="&lt;font style=&quot;font-size: 14px;&quot;&gt;Lat&lt;/font&gt;" style="rounded=0;whiteSpace=wrap;html=1;fillColor=#fff2cc;strokeColor=#d6b656;" vertex="1" parent="1">
          <mxGeometry x="440" y="160" width="40" height="40" as="geometry" />
        </mxCell>
        <mxCell id="HftDXYYa0DBVADGEEzue-12" value="&lt;font style=&quot;font-size: 14px;&quot;&gt;Latitude&lt;/font&gt;" style="rounded=0;whiteSpace=wrap;html=1;fillColor=#fff2cc;strokeColor=#d6b656;" vertex="1" parent="1">
          <mxGeometry x="160" y="200" width="120" height="40" as="geometry" />
        </mxCell>
        <mxCell id="HftDXYYa0DBVADGEEzue-13" value="&lt;font style=&quot;font-size: 14px;&quot;&gt;Longitude&lt;/font&gt;" style="rounded=0;whiteSpace=wrap;html=1;fillColor=#f8cecc;strokeColor=#b85450;" vertex="1" parent="1">
          <mxGeometry x="280" y="200" width="160" height="40" as="geometry" />
        </mxCell>
        <mxCell id="HftDXYYa0DBVADGEEzue-14" value="&lt;font style=&quot;font-size: 14px;&quot;&gt;Alt&lt;/font&gt;" style="rounded=0;whiteSpace=wrap;html=1;fillColor=#e1d5e7;strokeColor=#9673a6;" vertex="1" parent="1">
          <mxGeometry x="440" y="200" width="40" height="40" as="geometry" />
        </mxCell>
        <mxCell id="HftDXYYa0DBVADGEEzue-15" value="&lt;font style=&quot;font-size: 14px;&quot;&gt;Alt&lt;/font&gt;" style="rounded=0;whiteSpace=wrap;html=1;fillColor=#e1d5e7;strokeColor=#9673a6;" vertex="1" parent="1">
          <mxGeometry x="160" y="240" width="40" height="40" as="geometry" />
        </mxCell>
        <mxCell id="HftDXYYa0DBVADGEEzue-16" value="&lt;font style=&quot;font-size: 14px;&quot;&gt;Vel.&lt;/font&gt;" style="rounded=0;whiteSpace=wrap;html=1;fillColor=#fad7ac;strokeColor=#b46504;" vertex="1" parent="1">
          <mxGeometry x="200" y="240" width="40" height="40" as="geometry" />
        </mxCell>
        <mxCell id="HftDXYYa0DBVADGEEzue-17" value="&lt;font style=&quot;font-size: 14px;&quot;&gt;Sats&lt;/font&gt;" style="rounded=0;whiteSpace=wrap;html=1;fillColor=#fad9d5;strokeColor=#ae4132;" vertex="1" parent="1">
          <mxGeometry x="240" y="240" width="40" height="40" as="geometry" />
        </mxCell>
        <mxCell id="HftDXYYa0DBVADGEEzue-18" value="&lt;font style=&quot;font-size: 14px;&quot;&gt;Temp&lt;/font&gt;" style="rounded=0;whiteSpace=wrap;html=1;fillColor=#b0e3e6;strokeColor=#0e8088;" vertex="1" parent="1">
          <mxGeometry x="280" y="240" width="40" height="40" as="geometry" />
        </mxCell>
        <mxCell id="HftDXYYa0DBVADGEEzue-19" value="&lt;font style=&quot;font-size: 14px;&quot;&gt;Batt&lt;/font&gt;" style="rounded=0;whiteSpace=wrap;html=1;fillColor=#b1ddf0;strokeColor=#10739e;" vertex="1" parent="1">
          <mxGeometry x="320" y="240" width="40" height="40" as="geometry" />
        </mxCell>
        <mxCell id="HftDXYYa0DBVADGEEzue-20" value="&lt;font style=&quot;font-size: 14px;&quot;&gt;Custom&lt;/font&gt;" style="rounded=0;whiteSpace=wrap;html=1;fillColor=#d0cee2;strokeColor=#56517e;" vertex="1" parent="1">
          <mxGeometry x="360" y="240" width="120" height="40" as="geometry" />
        </mxCell>
        <mxCell id="HftDXYYa0DBVADGEEzue-21" value="&lt;font style=&quot;font-size: 14px;&quot;&gt;Custom&lt;/font&gt;" style="rounded=0;whiteSpace=wrap;html=1;fillColor=#d0cee2;strokeColor=#56517e;" vertex="1" parent="1">
          <mxGeometry x="160" y="280" width="240" height="40" as="geometry" />
        </mxCell>
        <mxCell id="HftDXYYa0DBVADGEEzue-22" value="&lt;font style=&quot;font-size: 14px;&quot;&gt;CRC16&lt;/font&gt;" style="rounded=0;whiteSpace=wrap;html=1;fillColor=#bac8d3;strokeColor=#23445d;" vertex="1" parent="1">
          <mxGeometry x="400" y="280" width="80" height="40" as="geometry" />
        </mxCell>
        <mxCell id="HftDXYYa0DBVADGEEzue-23" value="&lt;font style=&quot;font-size: 19px;&quot;&gt;24&lt;br&gt;&lt;/font&gt;" style="rounded=0;whiteSpace=wrap;html=1;strokeWidth=2;" vertex="1" parent="1">
          <mxGeometry x="120" y="280" width="40" height="40" as="geometry" />
        </mxCell>
        <mxCell id="HftDXYYa0DBVADGEEzue-24" value="&lt;font style=&quot;font-size: 15px;&quot;&gt;Byte&lt;/font&gt;" style="rounded=0;whiteSpace=wrap;html=1;strokeWidth=2;rotation=-90;" vertex="1" parent="1">
          <mxGeometry x="20" y="220" width="160" height="40" as="geometry" />
        </mxCell>
        <mxCell id="HftDXYYa0DBVADGEEzue-25" value="&lt;font style=&quot;font-size: 19px;&quot;&gt;0&lt;/font&gt;" style="rounded=0;whiteSpace=wrap;html=1;strokeWidth=2;" vertex="1" parent="1">
          <mxGeometry x="120" y="400" width="40" height="40" as="geometry" />
        </mxCell>
        <mxCell id="HftDXYYa0DBVADGEEzue-26" value="&lt;span style=&quot;font-size: 19px;&quot;&gt;8&lt;/span&gt;" style="rounded=0;whiteSpace=wrap;html=1;strokeWidth=2;" vertex="1" parent="1">
          <mxGeometry x="120" y="440" width="40" height="40" as="geometry" />
        </mxCell>
        <mxCell id="HftDXYYa0DBVADGEEzue-27" value="&lt;font style=&quot;font-size: 19px;&quot;&gt;16&lt;br&gt;&lt;/font&gt;" style="rounded=0;whiteSpace=wrap;html=1;strokeWidth=2;" vertex="1" parent="1">
          <mxGeometry x="120" y="480" width="40" height="40" as="geometry" />
        </mxCell>
        <mxCell id="HftDXYYa0DBVADGEEzue-28" value="&lt;font style=&quot;font-size: 14px;&quot;&gt;Payload ID&lt;/font&gt;" style="rounded=0;whiteSpace=wrap;html=1;fillColor=#dae8fc;strokeColor=#6c8ebf;" vertex="1" parent="1">
          <mxGeometry x="160" y="400" width="80" height="40" as="geometry" />
        </mxCell>
        <mxCell id="HftDXYYa0DBVADGEEzue-29" value="&lt;font style=&quot;font-size: 14px;&quot;&gt;Frame No.&lt;/font&gt;" style="rounded=0;whiteSpace=wrap;html=1;fillColor=#d5e8d4;strokeColor=#82b366;" vertex="1" parent="1">
          <mxGeometry x="240" y="400" width="80" height="40" as="geometry" />
        </mxCell>
        <mxCell id="HftDXYYa0DBVADGEEzue-30" value="&lt;font style=&quot;font-size: 14px;&quot;&gt;HH&lt;/font&gt;" style="rounded=0;whiteSpace=wrap;html=1;fillColor=#ffe6cc;strokeColor=#d79b00;" vertex="1" parent="1">
          <mxGeometry x="320" y="400" width="40" height="40" as="geometry" />
        </mxCell>
        <mxCell id="HftDXYYa0DBVADGEEzue-31" value="&lt;font style=&quot;font-size: 14px;&quot;&gt;MM&lt;/font&gt;" style="rounded=0;whiteSpace=wrap;html=1;fillColor=#ffe6cc;strokeColor=#d79b00;" vertex="1" parent="1">
          <mxGeometry x="360" y="400" width="40" height="40" as="geometry" />
        </mxCell>
        <mxCell id="HftDXYYa0DBVADGEEzue-32" value="&lt;font style=&quot;font-size: 14px;&quot;&gt;SS&lt;/font&gt;" style="rounded=0;whiteSpace=wrap;html=1;fillColor=#ffe6cc;strokeColor=#d79b00;" vertex="1" parent="1">
          <mxGeometry x="400" y="400" width="40" height="40" as="geometry" />
        </mxCell>
        <mxCell id="HftDXYYa0DBVADGEEzue-33" value="&lt;font style=&quot;font-size: 14px;&quot;&gt;Lat&lt;/font&gt;" style="rounded=0;whiteSpace=wrap;html=1;fillColor=#fff2cc;strokeColor=#d6b656;" vertex="1" parent="1">
          <mxGeometry x="440" y="400" width="40" height="40" as="geometry" />
        </mxCell>
        <mxCell id="HftDXYYa0DBVADGEEzue-34" value="&lt;font style=&quot;font-size: 14px;&quot;&gt;Latitude&lt;/font&gt;" style="rounded=0;whiteSpace=wrap;html=1;fillColor=#fff2cc;strokeColor=#d6b656;" vertex="1" parent="1">
          <mxGeometry x="160" y="440" width="120" height="40" as="geometry" />
        </mxCell>
        <mxCell id="HftDXYYa0DBVADGEEzue-35" value="&lt;font style=&quot;font-size: 14px;&quot;&gt;Longitude&lt;/font&gt;" style="rounded=0;whiteSpace=wrap;html=1;fillColor=#f8cecc;strokeColor=#b85450;" vertex="1" parent="1">
          <mxGeometry x="280" y="440" width="160" height="40" as="geometry" />
        </mxCell>
        <mxCell id="HftDXYYa0DBVADGEEzue-36" value="&lt;font style=&quot;font-size: 14px;&quot;&gt;Alt&lt;/font&gt;" style="rounded=0;whiteSpace=wrap;html=1;fillColor=#e1d5e7;strokeColor=#9673a6;" vertex="1" parent="1">
          <mxGeometry x="440" y="440" width="40" height="40" as="geometry" />
        </mxCell>
        <mxCell id="HftDXYYa0DBVADGEEzue-37" value="&lt;font style=&quot;font-size: 14px;&quot;&gt;Alt&lt;/font&gt;" style="rounded=0;whiteSpace=wrap;html=1;fillColor=#e1d5e7;strokeColor=#9673a6;" vertex="1" parent="1">
          <mxGeometry x="160" y="480" width="40" height="40" as="geometry" />
        </mxCell>
        <mxCell id="HftDXYYa0DBVADGEEzue-38" value="Vel-H" style="rounded=0;whiteSpace=wrap;html=1;fillColor=#fad7ac;strokeColor=#b46504;" vertex="1" parent="1">
          <mxGeometry x="200" y="480" width="40" height="40" as="geometry" />
        </mxCell>
        <mxCell id="HftDXYYa0DBVADGEEzue-39" value="&lt;font style=&quot;font-size: 14px;&quot;&gt;Sats&lt;/font&gt;" style="rounded=0;whiteSpace=wrap;html=1;fillColor=#fad9d5;strokeColor=#ae4132;" vertex="1" parent="1">
          <mxGeometry x="240" y="480" width="40" height="40" as="geometry" />
        </mxCell>
        <mxCell id="HftDXYYa0DBVADGEEzue-40" value="&lt;font style=&quot;font-size: 14px;&quot;&gt;Temp&lt;/font&gt;" style="rounded=0;whiteSpace=wrap;html=1;fillColor=#b0e3e6;strokeColor=#0e8088;" vertex="1" parent="1">
          <mxGeometry x="280" y="480" width="40" height="40" as="geometry" />
        </mxCell>
        <mxCell id="HftDXYYa0DBVADGEEzue-41" value="&lt;font style=&quot;font-size: 14px;&quot;&gt;Batt&lt;/font&gt;" style="rounded=0;whiteSpace=wrap;html=1;fillColor=#b1ddf0;strokeColor=#10739e;" vertex="1" parent="1">
          <mxGeometry x="320" y="480" width="40" height="40" as="geometry" />
        </mxCell>
        <mxCell id="HftDXYYa0DBVADGEEzue-42" value="&lt;font style=&quot;font-size: 14px;&quot;&gt;Ascent&lt;br&gt;Rate&lt;br&gt;&lt;/font&gt;" style="rounded=0;whiteSpace=wrap;html=1;fillColor=#d0cee2;strokeColor=#56517e;strokeWidth=2;dashed=1;" vertex="1" parent="1">
          <mxGeometry x="360" y="480" width="80" height="40" as="geometry" />
        </mxCell>
        <mxCell id="HftDXYYa0DBVADGEEzue-44" value="&lt;font style=&quot;font-size: 14px;&quot;&gt;CRC16&lt;/font&gt;" style="rounded=0;whiteSpace=wrap;html=1;fillColor=#bac8d3;strokeColor=#23445d;" vertex="1" parent="1">
          <mxGeometry x="400" y="520" width="80" height="40" as="geometry" />
        </mxCell>
        <mxCell id="HftDXYYa0DBVADGEEzue-45" value="&lt;font style=&quot;font-size: 19px;&quot;&gt;24&lt;br&gt;&lt;/font&gt;" style="rounded=0;whiteSpace=wrap;html=1;strokeWidth=2;" vertex="1" parent="1">
          <mxGeometry x="120" y="520" width="40" height="40" as="geometry" />
        </mxCell>
        <mxCell id="HftDXYYa0DBVADGEEzue-46" value="&lt;font style=&quot;font-size: 15px;&quot;&gt;Byte&lt;/font&gt;" style="rounded=0;whiteSpace=wrap;html=1;strokeWidth=2;rotation=-90;" vertex="1" parent="1">
          <mxGeometry x="20" y="460" width="160" height="40" as="geometry" />
        </mxCell>
        <mxCell id="HftDXYYa0DBVADGEEzue-47" value="&lt;font style=&quot;font-size: 14px;&quot;&gt;Ext.&lt;br&gt;Temp&lt;/font&gt;" style="rounded=0;whiteSpace=wrap;html=1;fillColor=#dae8fc;strokeColor=#6c8ebf;strokeWidth=2;dashed=1;" vertex="1" parent="1">
          <mxGeometry x="440" y="480" width="40" height="40" as="geometry" />
        </mxCell>
        <mxCell id="HftDXYYa0DBVADGEEzue-50" value="&lt;span style=&quot;font-size: 14px;&quot;&gt;Hum.&lt;/span&gt;" style="rounded=0;whiteSpace=wrap;html=1;fillColor=#d5e8d4;strokeColor=#82b366;strokeWidth=2;dashed=1;" vertex="1" parent="1">
          <mxGeometry x="200" y="520" width="40" height="40" as="geometry" />
        </mxCell>
        <mxCell id="HftDXYYa0DBVADGEEzue-51" value="&lt;span style=&quot;font-size: 14px;&quot;&gt;Pressure&lt;/span&gt;" style="rounded=0;whiteSpace=wrap;html=1;fillColor=#ffe6cc;strokeColor=#d79b00;strokeWidth=2;dashed=1;" vertex="1" parent="1">
          <mxGeometry x="240" y="520" width="80" height="40" as="geometry" />
        </mxCell>
        <mxCell id="HftDXYYa0DBVADGEEzue-52" value="&lt;span style=&quot;font-size: 14px;&quot;&gt;Pulse &lt;br&gt;Count&lt;/span&gt;" style="rounded=0;whiteSpace=wrap;html=1;fillColor=#f8cecc;strokeColor=#b85450;strokeWidth=2;dashed=1;" vertex="1" parent="1">
          <mxGeometry x="320" y="520" width="80" height="40" as="geometry" />
        </mxCell>
        <mxCell id="HftDXYYa0DBVADGEEzue-53" value="&lt;font style=&quot;font-size: 19px;&quot;&gt;0&lt;/font&gt;" style="rounded=0;whiteSpace=wrap;html=1;strokeWidth=2;" vertex="1" parent="1">
          <mxGeometry x="160" y="360" width="40" height="40" as="geometry" />
        </mxCell>
        <mxCell id="HftDXYYa0DBVADGEEzue-54" value="&lt;font style=&quot;font-size: 19px;&quot;&gt;1&lt;/font&gt;" style="rounded=0;whiteSpace=wrap;html=1;strokeWidth=2;" vertex="1" parent="1">
          <mxGeometry x="200" y="360" width="40" height="40" as="geometry" />
        </mxCell>
        <mxCell id="HftDXYYa0DBVADGEEzue-55" value="&lt;font style=&quot;font-size: 19px;&quot;&gt;2&lt;/font&gt;" style="rounded=0;whiteSpace=wrap;html=1;strokeWidth=2;" vertex="1" parent="1">
          <mxGeometry x="240" y="360" width="40" height="40" as="geometry" />
        </mxCell>
        <mxCell id="HftDXYYa0DBVADGEEzue-56" value="&lt;font style=&quot;font-size: 19px;&quot;&gt;3&lt;/font&gt;" style="rounded=0;whiteSpace=wrap;html=1;strokeWidth=2;" vertex="1" parent="1">
          <mxGeometry x="280" y="360" width="40" height="40" as="geometry" />
        </mxCell>
        <mxCell id="HftDXYYa0DBVADGEEzue-57" value="&lt;font style=&quot;font-size: 19px;&quot;&gt;4&lt;/font&gt;" style="rounded=0;whiteSpace=wrap;html=1;strokeWidth=2;" vertex="1" parent="1">
          <mxGeometry x="320" y="360" width="40" height="40" as="geometry" />
        </mxCell>
        <mxCell id="HftDXYYa0DBVADGEEzue-58" value="&lt;font style=&quot;font-size: 19px;&quot;&gt;5&lt;/font&gt;" style="rounded=0;whiteSpace=wrap;html=1;strokeWidth=2;" vertex="1" parent="1">
          <mxGeometry x="360" y="360" width="40" height="40" as="geometry" />
        </mxCell>
        <mxCell id="HftDXYYa0DBVADGEEzue-59" value="&lt;font style=&quot;font-size: 19px;&quot;&gt;6&lt;/font&gt;" style="rounded=0;whiteSpace=wrap;html=1;strokeWidth=2;" vertex="1" parent="1">
          <mxGeometry x="400" y="360" width="40" height="40" as="geometry" />
        </mxCell>
        <mxCell id="HftDXYYa0DBVADGEEzue-60" value="&lt;font style=&quot;font-size: 19px;&quot;&gt;7&lt;/font&gt;" style="rounded=0;whiteSpace=wrap;html=1;strokeWidth=2;" vertex="1" parent="1">
          <mxGeometry x="440" y="360" width="40" height="40" as="geometry" />
        </mxCell>
        <mxCell id="HftDXYYa0DBVADGEEzue-61" value="&lt;font style=&quot;font-size: 14px;&quot;&gt;Ext.&lt;br&gt;Temp&lt;/font&gt;" style="rounded=0;whiteSpace=wrap;html=1;fillColor=#dae8fc;strokeColor=#6c8ebf;strokeWidth=2;dashed=1;" vertex="1" parent="1">
          <mxGeometry x="160" y="520" width="40" height="40" as="geometry" />
        </mxCell>
      </root>
    </mxGraphModel>
  </diagram>
</mxfile>
